<svg id="Layer_1" data-name="Layer 1" xmlns="http://www.w3.org/2000/svg" viewBox="0 0 351.38 243.58"><defs><style>.cls-1{font-size:76.82px;font-family:PlayfairDisplay-Black, Playfair Display;font-weight:800;}.cls-1,.cls-4{fill:#25271c;}.cls-2{letter-spacing:-0.04em;}.cls-3{letter-spacing:-0.08em;}.cls-5,.cls-6{fill:none;stroke:#d23e3a;stroke-miterlimit:10;stroke-width:3px;}.cls-6{opacity:0.95;}</style></defs><text class="cls-1" transform="translate(0 137.15)">Cora<tspan class="cls-2" x="177.07" y="0"> </tspan><tspan class="cls-3" x="191.13" y="0">W</tspan><tspan x="262.57" y="0">an</tspan></text><path class="cls-4" d="M97,163.82a9.36,9.36,0,0,1-.89.48,6.36,6.36,0,0,1-1.3.45,7.07,7.07,0,0,1-1.65.18,6.93,6.93,0,0,1-2.71-.54,6.08,6.08,0,0,1-3.37-3.5,6.94,6.94,0,0,1-.45-2.51,7.56,7.56,0,0,1,.46-2.69,6.24,6.24,0,0,1,1.35-2.14,6.13,6.13,0,0,1,2-1.42,6.56,6.56,0,0,1,2.58-.5,6.69,6.69,0,0,1,2.12.32,8.14,8.14,0,0,1,1.64.72l-.7,1.66a6.94,6.94,0,0,0-1.31-.7,4.29,4.29,0,0,0-1.7-.33,4.44,4.44,0,0,0-1.8.38,4.72,4.72,0,0,0-1.49,1.06,5.28,5.28,0,0,0-1,1.59,5.22,5.22,0,0,0-.37,2,5.62,5.62,0,0,0,.34,2,4.71,4.71,0,0,0,.95,1.59,4.42,4.42,0,0,0,1.5,1,5,5,0,0,0,2,.38A4.69,4.69,0,0,0,95,163a5.65,5.65,0,0,0,1.28-.68Z"/><path class="cls-4" d="M106.19,165a4,4,0,0,1-1.9-.45,3.38,3.38,0,0,1-1.36-1.32,4.31,4.31,0,0,1-.5-2.14,4.21,4.21,0,0,1,.52-2.16,3.64,3.64,0,0,1,1.4-1.38,3.87,3.87,0,0,1,1.93-.49,3.12,3.12,0,0,1,1.77.48,3.22,3.22,0,0,1,1.09,1.12l-.11.27.17-1.56h1.54v7.45h-1.67v-1.95l.2.44a2.75,2.75,0,0,1-.34.46,4.65,4.65,0,0,1-.64.56,3.72,3.72,0,0,1-.91.48A3.42,3.42,0,0,1,106.19,165Zm.45-1.39a2.57,2.57,0,0,0,1.13-.23,2.21,2.21,0,0,0,.84-.67,2.46,2.46,0,0,0,.46-1v-1.45a2.35,2.35,0,0,0-.5-.95,2.5,2.5,0,0,0-.87-.63,2.64,2.64,0,0,0-1.1-.22,2.39,2.39,0,0,0-1.24.32,2.48,2.48,0,0,0-.89.9,2.65,2.65,0,0,0-.33,1.35,2.59,2.59,0,0,0,1.26,2.25A2.36,2.36,0,0,0,106.64,163.58Z"/><path class="cls-4" d="M117.94,154.06h1.71v3.31h2v1.32h-2v6.1h-1.71v-6.1h-1.35v-1.32h1.35Z"/><path class="cls-4" d="M133.35,164.09a3.72,3.72,0,0,1-1.2.64,4.35,4.35,0,0,1-1.41.24,4.46,4.46,0,0,1-2.13-.49,3.55,3.55,0,0,1-1.45-1.37,3.93,3.93,0,0,1-.52-2.07,3.7,3.7,0,0,1,.56-2.06,3.84,3.84,0,0,1,1.45-1.35,4.08,4.08,0,0,1,1.93-.47,4.92,4.92,0,0,1,1.59.24,3.65,3.65,0,0,1,1.24.69l-.85,1.08a3.94,3.94,0,0,0-.78-.44,2.61,2.61,0,0,0-1.06-.21,2.37,2.37,0,0,0-2.07,1.24,2.59,2.59,0,0,0-.32,1.28,2.61,2.61,0,0,0,.32,1.28,2.48,2.48,0,0,0,.9.92,2.57,2.57,0,0,0,1.34.34,2.52,2.52,0,0,0,1.6-.54Z"/><path class="cls-4" d="M139.09,164.79V150.86h1.66v8.2l0-.3a3.19,3.19,0,0,1,1.17-1.23,3.48,3.48,0,0,1,1.86-.48,2.47,2.47,0,0,1,1.72.62,2.13,2.13,0,0,1,.69,1.61v5.51h-1.69v-4.93a1.5,1.5,0,0,0-.35-1,1.29,1.29,0,0,0-1-.39,2,2,0,0,0-1.16.37,2.49,2.49,0,0,0-.83,1,3.46,3.46,0,0,0-.29,1.44v3.49Z"/><path class="cls-4" d="M162.66,154.06h1.71v3.31h2v1.32h-2v6.1h-1.71v-6.1h-1.35v-1.32h1.35Z"/><path class="cls-4" d="M172,164.79V150.86h1.65v8.2l0-.3a3.17,3.17,0,0,1,1.16-1.23,3.48,3.48,0,0,1,1.86-.48,2.45,2.45,0,0,1,1.72.62,2.13,2.13,0,0,1,.69,1.61v5.51h-1.69v-4.93a1.5,1.5,0,0,0-.35-1,1.28,1.28,0,0,0-1-.39,2,2,0,0,0-1.17.37,2.46,2.46,0,0,0-.82,1,3.31,3.31,0,0,0-.3,1.44v3.49Z"/><path class="cls-4" d="M189,165a4.44,4.44,0,0,1-2.2-.51,3.63,3.63,0,0,1-1.42-1.41,4,4,0,0,1-.51-2,3.67,3.67,0,0,1,.57-2,4.31,4.31,0,0,1,1.5-1.44,4.12,4.12,0,0,1,2.09-.54,3.57,3.57,0,0,1,2.45.86,4.46,4.46,0,0,1,1.33,2.38l-6.15,2.16-.4-1,5-1.85-.34.25a2.36,2.36,0,0,0-.72-1,1.93,1.93,0,0,0-1.31-.43,2.34,2.34,0,0,0-1.22.32,2.48,2.48,0,0,0-.84.89,2.81,2.81,0,0,0-.3,1.33,2.86,2.86,0,0,0,.31,1.35,2.46,2.46,0,0,0,.88.93,2.53,2.53,0,0,0,1.29.33,2.59,2.59,0,0,0,.95-.18,4.6,4.6,0,0,0,.87-.47l.76,1.24a5.18,5.18,0,0,1-1.25.61A4.2,4.2,0,0,1,189,165Z"/><path class="cls-4" d="M207.08,151.83h2l3.51,9.93-.3-.1,2.57-6.68.81,2.36-3.46,8.06Zm6.28,0h1.73l3.83,9.81-.37-.07,3.34-9.74h1.88l-5.12,13.53Z"/><path class="cls-4" d="M231,165a4,4,0,0,1-1.9-.45,3.32,3.32,0,0,1-1.36-1.32,4.71,4.71,0,0,1,0-4.3,3.51,3.51,0,0,1,1.4-1.38,3.87,3.87,0,0,1,1.93-.49,3.17,3.17,0,0,1,1.77.48,3.31,3.31,0,0,1,1.09,1.12l-.11.27.16-1.56h1.55v7.45h-1.67v-1.95l.19.44a2.28,2.28,0,0,1-.34.46,4.65,4.65,0,0,1-.64.56,3.72,3.72,0,0,1-.91.48A3.32,3.32,0,0,1,231,165Zm.45-1.39a2.6,2.6,0,0,0,1.13-.23,2.29,2.29,0,0,0,.84-.67,2.6,2.6,0,0,0,.46-1v-1.45a2.37,2.37,0,0,0-.51-.95,2.55,2.55,0,0,0-.86-.63,2.67,2.67,0,0,0-1.1-.22,2.36,2.36,0,0,0-1.24.32,2.48,2.48,0,0,0-.89.9,2.74,2.74,0,0,0,0,2.66,2.49,2.49,0,0,0,.91.94A2.4,2.4,0,0,0,231.42,163.58Z"/><path class="cls-4" d="M245,165l-4.14-7.66h2l2.79,5.92-1-.06,2.58-5.86h1.87l-4,7.66Z"/><path class="cls-4" d="M257.79,165a4.44,4.44,0,0,1-2.2-.51,3.63,3.63,0,0,1-1.42-1.41,4,4,0,0,1-.51-2,3.67,3.67,0,0,1,.57-2,4.31,4.31,0,0,1,1.5-1.44,4.12,4.12,0,0,1,2.09-.54,3.57,3.57,0,0,1,2.45.86,4.46,4.46,0,0,1,1.33,2.38l-6.15,2.16-.4-1,5-1.85-.34.25a2.36,2.36,0,0,0-.72-1,1.93,1.93,0,0,0-1.31-.43,2.34,2.34,0,0,0-1.22.32,2.48,2.48,0,0,0-.84.89,2.81,2.81,0,0,0-.3,1.33,2.86,2.86,0,0,0,.31,1.35,2.46,2.46,0,0,0,.88.93,2.53,2.53,0,0,0,1.29.33,2.59,2.59,0,0,0,.95-.18,4.6,4.6,0,0,0,.87-.47l.76,1.24a5.18,5.18,0,0,1-1.25.61A4.2,4.2,0,0,1,257.79,165Z"/><line class="cls-5" x1="100.94" y1="242.79" x2="142.94" y2="174.79"/><line class="cls-6" x1="207.94" y1="68.79" x2="249.94" y2="0.79"/></svg>